<svg width="40" height="39" viewBox="0 0 40 39" fill="none" xmlns="http://www.w3.org/2000/svg">
<g id="Group 1948757684">
<circle id="Ellipse 991" cx="19.8566" cy="19.7365" r="19.2552" fill="white" fill-opacity="0.2"/>
<path id="Union" d="M18.5975 11.5559L18.2439 11.2023L18.2439 11.2023L18.5975 11.5559ZM18.5975 27.917L18.2439 28.2706H18.2439L18.5975 27.917ZM14.8079 24.1275L15.1615 23.7739L14.8079 24.1275ZM14.808 15.3454L14.4544 14.9918L14.808 15.3454ZM18.2439 11.2023L14.4544 14.9918L15.1615 15.6989L18.951 11.9094L18.2439 11.2023ZM20.3567 12.0775C20.3567 10.9749 19.0236 10.4227 18.2439 11.2023L18.951 11.9094C19.1007 11.7597 19.3567 11.8658 19.3567 12.0775H20.3567ZM20.3567 27.3954V12.0775H19.3567V27.3954H20.3567ZM18.2439 28.2706C19.0236 29.0502 20.3567 28.498 20.3567 27.3954H19.3567C19.3567 27.6071 19.1007 27.7132 18.951 27.5635L18.2439 28.2706ZM14.4544 24.481L18.2439 28.2706L18.951 27.5635L15.1615 23.7739L14.4544 24.481ZM14.2863 23.4114H10.5721V24.4114H14.2863V23.4114ZM10.5721 23.4114C10.0335 23.4114 9.59683 22.9748 9.59683 22.4361H8.59683C8.59683 23.5271 9.4812 24.4114 10.5721 24.4114V23.4114ZM9.59683 22.4361V17.0367H8.59683V22.4361H9.59683ZM9.59683 17.0367C9.59683 16.4981 10.0335 16.0614 10.5721 16.0614V15.0614C9.4812 15.0614 8.59683 15.9458 8.59683 17.0367H9.59683ZM10.5721 16.0614H14.2864V15.0614H10.5721V16.0614ZM15.1615 23.7739C14.9294 23.5418 14.6146 23.4114 14.2863 23.4114V24.4114C14.3494 24.4114 14.4098 24.4365 14.4544 24.481L15.1615 23.7739ZM14.4544 14.9918C14.4098 15.0364 14.3494 15.0614 14.2864 15.0614V16.0614C14.6146 16.0614 14.9294 15.931 15.1615 15.6989L14.4544 14.9918Z" fill="white"/>
<path id="Vector" d="M24.2588 15.236C26.6902 17.6674 26.6902 21.6094 24.2588 24.0407M27.4959 11.9991C31.7149 16.2182 31.7149 23.0585 27.4959 27.2776" stroke="white"/>
</g>
</svg>
